<svg width="96" height="96" xmlns="http://www.w3.org/2000/svg" xmlns:xlink="http://www.w3.org/1999/xlink" xml:space="preserve" overflow="hidden"><g transform="translate(-592 -312)"><path d="M680.6 346.761 680.59 346.761 665.252 347.243C663.301 345.835 660.927 345.136 658.524 345.261 658.347 345.261 658.167 345.261 657.982 345.269 651.233 345.481 649.053 351.644 640.608 357.152 634.559 348.469 618.669 339.293 607.412 336.96 606.272 336.722 605.118 337.3 604.625 338.355 604.313 339.033 604.315 339.813 604.63 340.489 607.952 347.838 617.069 359.13 625.507 365.589L601.478 389.468C601.129 389.822 601.132 390.392 601.486 390.741 601.648 390.901 601.864 390.993 602.091 391 602.24 390.999 602.387 390.961 602.518 390.889 609.603 387.151 622.071 381.281 632.133 380.289 651.461 378.389 662.127 366.726 665.781 349.903L680.661 347.248C680.792 347.205 680.864 347.064 680.821 346.933 680.789 346.836 680.702 346.768 680.6 346.761ZM631.937 378.3C624.076 379.073 614.837 382.718 607.817 386.012 607.789 386.025 607.785 386.017 607.807 385.995L627.142 366.78C628.252 367.561 629.412 368.27 630.614 368.9 630.755 368.974 630.913 369.012 631.072 369.012 631.624 369.013 632.073 368.566 632.074 368.014 632.075 367.639 631.866 367.295 631.532 367.123 621.914 362.157 609.863 347.246 606.432 339.623 606.322 339.363 606.443 339.063 606.703 338.953 606.798 338.913 606.904 338.902 607.005 338.923 619 341.4 637.21 352.409 640.577 361.234 640.774 361.75 641.352 362.009 641.868 361.812 642.384 361.615 642.643 361.037 642.446 360.521 642.222 359.947 641.96 359.388 641.662 358.849 644.566 356.908 647.267 354.678 649.723 352.194 652.729 349.294 654.715 347.373 658.04 347.268 658.203 347.263 658.362 347.261 658.519 347.261 660.456 347.145 662.376 347.678 663.976 348.776 660.393 366.391 649.334 376.592 631.937 378.3Z" fill="#215F9A"/><path d="M626.694 342.828C627.235 342.716 627.583 342.187 627.471 341.646 627.471 341.646 627.471 341.646 627.471 341.646 626.643 338.151 626.312 334.556 626.489 330.969 626.495 330.78 626.609 330.61 626.783 330.534 626.957 330.45 627.164 330.473 627.315 330.595 633.362 335.357 638.279 342.195 642.79 352.095 643.03 352.592 643.628 352.801 644.125 352.561 644.607 352.329 644.82 351.759 644.61 351.267 639.988 341.113 634.915 334.067 628.655 329.102 627.961 328.528 627.021 328.348 626.164 328.626 625.195 328.965 624.532 329.861 624.491 330.886 624.305 334.637 624.648 338.395 625.512 342.049 625.623 342.59 626.151 342.939 626.692 342.828 626.693 342.828 626.693 342.828 626.694 342.828Z" fill="#215F9A"/><path d="M658.204 351.5C658.204 352.328 657.532 353 656.704 353 655.876 353 655.204 352.328 655.204 351.5 655.204 350.672 655.876 350 656.704 350 657.532 350 658.204 350.672 658.204 351.5Z" fill="#215F9A"/></g></svg>