<svg width="96" height="96" xmlns="http://www.w3.org/2000/svg" xmlns:xlink="http://www.w3.org/1999/xlink" xml:space="preserve" overflow="hidden"><g transform="translate(-592 -372)"><path d="M640.056 403.816C647.496 403.817 653.527 397.786 653.528 390.346 653.529 382.906 647.498 376.875 640.058 376.874 632.618 376.873 626.587 382.904 626.586 390.344 626.586 390.345 626.586 390.345 626.586 390.346 626.587 397.785 632.617 403.815 640.056 403.816Z" fill="#2F5597"/><path d="M666.959 420.038C666.744 418.156 665.787 416.439 664.3 415.266 660.395 412.275 655.929 410.098 651.167 408.866 647.565 407.763 643.82 407.196 640.053 407.182 638.157 407.193 636.265 407.357 634.395 407.672 634.323 407.681 634.252 407.694 634.18 407.705L634 407.734 634 407.734C633.774 407.771 633.548 407.805 633.323 407.856L630.005 408.575 628.82 408.9 628.82 408.914C624.159 410.286 619.761 412.432 615.812 415.263 615.142 415.802 614.571 416.455 614.126 417.191 614.118 417.204 614.111 417.219 614.103 417.232 614.003 417.4 613.903 417.569 613.817 417.744 613.715 417.948 613.624 418.158 613.544 418.372 613.494 418.506 613.456 418.643 613.415 418.778 613.394 418.849 613.367 418.916 613.348 418.988L613.331 419.053C613.318 419.1 613.305 419.147 613.293 419.194L604.221 453.462C603.254 456.919 605.272 460.506 608.729 461.473 612.186 462.44 615.773 460.422 616.74 456.965 616.757 456.906 616.772 456.847 616.787 456.788L621.945 437.3C621.947 437.286 621.96 437.276 621.974 437.277 621.989 437.279 621.999 437.293 621.997 437.307L621.997 463.125 658 463.125 658 448.739C663.281 447.294 666.958 442.514 667 437.039L667 420.654ZM633 437.04C633 436.821 633.013 436.602 633.038 436.384 633.344 433.112 635.619 430.361 638.774 429.445L631.21 411.416 633.991 410.787C634.393 410.699 634.801 410.641 635.211 410.611L642.975 429.125 664 429.125 664 437.04C664 441.85 659.989 446.069 655.414 446.069L633 446.069Z" fill="#2F5597"/></g></svg>