<svg width="96" height="96" xmlns="http://www.w3.org/2000/svg" xmlns:xlink="http://www.w3.org/1999/xlink" xml:space="preserve" overflow="hidden"><g transform="translate(-544 -72)"><path d="M592 161C588.907 161 587.3 159.237 585.861 157.225 584.744 155.664 584.023 154.772 582.215 154.606 579.988 154.406 577.879 155.617 575.437 157.022 571.386 159.355 566.344 162.256 559.144 158.858 558.152 158.372 557.742 157.174 558.228 156.182 558.704 155.211 559.866 154.794 560.851 155.241 566.161 157.747 569.535 155.804 573.441 153.556 576.219 151.956 579.088 150.302 582.581 150.623 586.299 150.964 587.925 153.237 589.114 154.897 590.53 156.875 591.241 157.868 595.655 156.097 596.681 155.687 597.845 156.185 598.255 157.211 598.665 158.237 598.167 159.401 597.141 159.811 595.518 160.528 593.773 160.931 592 161Z" fill="#00B050"/><path d="M568.3 135.918C566.05 139.554 561.255 147.8 559.266 154.977 559.258 155.014 559.282 155.05 559.319 155.057 559.344 155.063 559.37 155.053 559.386 155.033 561.159 152.906 563.191 151.009 565.434 149.386L565.434 149.386C565.462 149.303 567.174 144.425 572.247 136.713 572.257 136.698 572.274 136.69 572.292 136.693 574.112 136.853 575.945 136.621 577.668 136.011 584.685 134.063 589.768 127.394 590.268 126.711 590.288 126.684 590.268 126.654 590.232 126.654 587.524 126.622 584.857 125.989 582.423 124.8 582.361 124.77 582.319 124.71 582.312 124.642 582.308 124.614 582.311 124.586 582.32 124.559 582.349 124.464 582.444 124.404 582.543 124.42L582.549 124.42C587.903 125.269 593.308 123.244 596.788 119.088 598.949 116.49 601.324 114.077 603.888 111.875 607.105 109.112 611.176 106.369 614.938 103.533 615.134 103.377 615.166 103.092 615.01 102.896 614.942 102.811 614.846 102.753 614.738 102.733 612.263 102.271 609.91 101.301 607.828 99.886 607.779 99.8531 607.747 99.8005 607.741 99.742 607.736 99.7044 607.742 99.6661 607.759 99.632 607.802 99.5417 607.905 99.4969 608 99.527 611.141 100.487 614.483 100.585 617.675 99.811 619.554 99.347 621.24 98.303 622.492 96.827 625.823 92.936 627.192 88.753 624.153 84.041 622.081 80.828 617.462 79.441 611.475 80.132 607.969 80.5014 604.967 82.8076 603.707 86.1 603.277 87.2534 602.965 88.4475 602.776 89.664 602.776 89.7745 602.687 89.864 602.576 89.864 602.466 89.864 602.376 89.7745 602.376 89.664 602.347 89.464 602.322 89.264 602.299 89.064 602.077 87.0766 602.182 85.0661 602.612 83.113 602.671 82.8755 602.526 82.6353 602.289 82.5764 602.202 82.555 602.111 82.5601 602.028 82.591 597.337 84.4717 592.902 86.9372 588.828 89.929 584.11 93.3244 579.784 97.2326 575.928 101.582 573.453 104.362 572.13 107.981 572.228 111.702 572.29 113.263 572.553 114.809 573.012 116.302 573.05 116.406 572.996 116.521 572.892 116.558 572.803 116.591 572.703 116.556 572.653 116.474 571.373 114.59 570.458 112.483 569.953 110.262L569.871 110.249C567.483 114.828 564.9 122 564.492 126.749 564.235 129.761 565.079 132.463 566.63 133.935 566.647 133.952 566.675 133.953 566.692 133.936 566.695 133.933 566.698 133.93 566.7 133.926 570.449 127.314 578.034 116.053 583.435 110.644 587.552 106.419 592.147 102.688 597.127 99.525 597.828 99.0828 598.591 98.7459 599.39 98.525 599.494 98.4891 599.608 98.5446 599.644 98.649 599.675 98.7379 599.639 98.8362 599.559 98.885 595.464 101.735 591.631 104.943 588.105 108.473 581.873 114.711 573.173 126.726 568.983 134.7 568.764 135.12 568.543 135.519 568.3 135.918Z" fill="#00B050"/></g></svg>